<svg width="187" height="58" viewBox="0 0 187 58" fill="none" xmlns="http://www.w3.org/2000/svg">
<path d="M17.088 27.44L12.552 36.608H10.32L5.808 27.44V38H2.064V21.224H7.128L11.448 30.44L15.792 21.224H20.832V38H17.088V27.44ZM35.8864 36.128C34.4304 37.504 32.7184 38.192 30.7504 38.192C28.7984 38.192 27.1824 37.592 25.9024 36.392C24.6224 35.176 23.9824 33.552 23.9824 31.52C23.9824 29.488 24.6304 27.872 25.9264 26.672C27.2384 25.472 28.7824 24.872 30.5584 24.872C32.3344 24.872 33.8384 25.408 35.0704 26.48C36.3184 27.552 36.9424 29.024 36.9424 30.896V32.816H27.5344C27.6464 33.52 28.0144 34.096 28.6384 34.544C29.2624 34.992 29.9664 35.216 30.7504 35.216C32.0144 35.216 33.0544 34.792 33.8704 33.944L35.8864 36.128ZM33.2944 30.248C33.2144 29.48 32.9264 28.888 32.4304 28.472C31.9344 28.056 31.3264 27.848 30.6064 27.848C29.9024 27.848 29.2544 28.064 28.6624 28.496C28.0704 28.928 27.7264 29.512 27.6304 30.248H33.2944ZM44.7984 38.192C43.2784 38.192 41.9184 37.544 40.7184 36.248C39.5184 34.952 38.9184 33.344 38.9184 31.424C38.9184 29.504 39.5024 27.936 40.6704 26.72C41.8384 25.488 43.2064 24.872 44.7744 24.872C46.3424 24.872 47.6224 25.424 48.6144 26.528V20.192H52.2144V38H48.6144V36.296C47.6064 37.56 46.3344 38.192 44.7984 38.192ZM42.5424 31.568C42.5424 32.608 42.8544 33.464 43.4784 34.136C44.1024 34.792 44.8304 35.12 45.6624 35.12C46.4944 35.12 47.1984 34.792 47.7744 34.136C48.3664 33.464 48.6624 32.608 48.6624 31.568C48.6624 30.512 48.3664 29.64 47.7744 28.952C47.1984 28.248 46.4864 27.896 45.6384 27.896C44.7904 27.896 44.0624 28.248 43.4544 28.952C42.8464 29.656 42.5424 30.528 42.5424 31.568ZM59.3227 38H55.7227V25.088H59.3227V38ZM56.0107 23.456C55.6107 23.04 55.4107 22.536 55.4107 21.944C55.4107 21.352 55.6107 20.856 56.0107 20.456C56.4267 20.04 56.9307 19.832 57.5227 19.832C58.1147 19.832 58.6107 20.04 59.0107 20.456C59.4267 20.856 59.6347 21.352 59.6347 21.944C59.6347 22.536 59.4267 23.04 59.0107 23.456C58.6107 23.856 58.1147 24.056 57.5227 24.056C56.9307 24.056 56.4267 23.856 56.0107 23.456ZM69.0226 35C70.2226 35 71.3026 34.4 72.2626 33.2L74.3986 35.6C72.7346 37.328 70.9346 38.192 68.9986 38.192C67.0626 38.192 65.4226 37.584 64.0786 36.368C62.7506 35.136 62.0866 33.536 62.0866 31.568C62.0866 29.584 62.7586 27.976 64.1026 26.744C65.4626 25.496 67.0706 24.872 68.9266 24.872C69.8546 24.872 70.7906 25.064 71.7346 25.448C72.6946 25.832 73.5346 26.4 74.2546 27.152L72.3826 29.6C71.9666 29.104 71.4546 28.72 70.8466 28.448C70.2546 28.176 69.6626 28.04 69.0706 28.04C68.1266 28.04 67.3106 28.352 66.6226 28.976C65.9506 29.584 65.6146 30.44 65.6146 31.544C65.6146 32.632 65.9506 33.48 66.6226 34.088C67.3106 34.696 68.1106 35 69.0226 35ZM87.8673 38H84.4833V36.44C83.5553 37.608 82.4033 38.192 81.0273 38.192C79.6673 38.192 78.5233 37.8 77.5953 37.016C76.6673 36.216 76.2033 35.16 76.2033 33.848C76.2033 32.52 76.6833 31.528 77.6433 30.872C78.6033 30.216 79.9153 29.888 81.5793 29.888H84.2673V29.816C84.2673 28.44 83.5393 27.752 82.0833 27.752C81.4593 27.752 80.7953 27.88 80.0913 28.136C79.4033 28.376 78.8193 28.68 78.3393 29.048L76.7313 26.72C78.4273 25.488 80.3633 24.872 82.5393 24.872C84.1073 24.872 85.3873 25.264 86.3793 26.048C87.3713 26.832 87.8673 28.072 87.8673 29.768V38ZM84.2433 33.08V32.456H81.9873C80.5473 32.456 79.8273 32.904 79.8273 33.8C79.8273 34.264 79.9953 34.624 80.3313 34.88C80.6833 35.12 81.1793 35.24 81.8193 35.24C82.4593 35.24 83.0193 35.048 83.4993 34.664C83.9953 34.264 84.2433 33.736 84.2433 33.08ZM94.8493 38H91.2493V20.192H94.8493V38ZM115.561 21.224H119.305V38H115.561V31.4H108.889V38H105.145V21.224H108.889V28.232H115.561V21.224ZM134.135 38H130.751V36.44C129.823 37.608 128.671 38.192 127.295 38.192C125.935 38.192 124.791 37.8 123.863 37.016C122.935 36.216 122.471 35.16 122.471 33.848C122.471 32.52 122.951 31.528 123.911 30.872C124.871 30.216 126.183 29.888 127.847 29.888H130.535V29.816C130.535 28.44 129.807 27.752 128.351 27.752C127.727 27.752 127.063 27.88 126.359 28.136C125.671 28.376 125.087 28.68 124.607 29.048L122.999 26.72C124.695 25.488 126.631 24.872 128.807 24.872C130.375 24.872 131.655 25.264 132.647 26.048C133.639 26.832 134.135 28.072 134.135 29.768V38ZM130.511 33.08V32.456H128.255C126.815 32.456 126.095 32.904 126.095 33.8C126.095 34.264 126.263 34.624 126.599 34.88C126.951 35.12 127.447 35.24 128.087 35.24C128.727 35.24 129.287 35.048 129.767 34.664C130.263 34.264 130.511 33.736 130.511 33.08ZM144.309 28.256C143.237 28.256 142.437 28.64 141.909 29.408C141.381 30.16 141.117 31.16 141.117 32.408V38H137.517V25.088H141.117V26.792C141.581 26.264 142.157 25.816 142.845 25.448C143.549 25.08 144.261 24.888 144.981 24.872L145.005 28.256H144.309ZM152.48 38.192C150.96 38.192 149.6 37.544 148.4 36.248C147.2 34.952 146.6 33.344 146.6 31.424C146.6 29.504 147.184 27.936 148.352 26.72C149.52 25.488 150.888 24.872 152.456 24.872C154.024 24.872 155.304 25.424 156.296 26.528V20.192H159.896V38H156.296V36.296C155.288 37.56 154.016 38.192 152.48 38.192ZM150.224 31.568C150.224 32.608 150.536 33.464 151.16 34.136C151.784 34.792 152.512 35.12 153.344 35.12C154.176 35.12 154.88 34.792 155.456 34.136C156.048 33.464 156.344 32.608 156.344 31.568C156.344 30.512 156.048 29.64 155.456 28.952C154.88 28.248 154.168 27.896 153.32 27.896C152.472 27.896 151.744 28.248 151.136 28.952C150.528 29.656 150.224 30.528 150.224 31.568ZM165.636 43.088C164.372 43.088 163.18 42.576 162.06 41.552L163.692 38.888C164.3 39.48 164.924 39.776 165.564 39.776C165.9 39.776 166.188 39.608 166.428 39.272C166.668 38.952 166.788 38.608 166.788 38.24C166.788 37.872 165.124 33.488 161.796 25.088H165.636L168.78 33.128L171.924 25.088H175.764L169.764 40.304C169.412 41.184 168.86 41.864 168.108 42.344C167.372 42.84 166.548 43.088 165.636 43.088Z" fill="#252B42"/>
</svg>
